<svg width="521" height="128" viewBox="0 0 521 128" fill="none" xmlns="http://www.w3.org/2000/svg">
<rect x="1" y="1" width="519" height="126" fill="white" stroke="black" stroke-width="2"/>
<rect x="12" y="11" width="273" height="106" fill="black" stroke="black" stroke-width="2"/>
<path d="M32.794 79V35.3636H39.3778V56.2017H39.9105L58.2131 35.3636H66.5014L48.902 55.0085L66.5653 79H58.6392L44.5341 59.5043L39.3778 65.4276V79H32.794ZM75.6378 79V35.3636H82.2216V54.3267H103.976V35.3636H110.581V79H103.976V59.973H82.2216V79H75.6378ZM126.855 79H119.866L135.57 35.3636H143.176L158.879 79H151.891L139.554 43.2898H139.213L126.855 79ZM128.027 61.9119H150.697V67.4517H128.027V61.9119ZM168.181 79V35.3636H174.765V73.3324H194.537V79H168.181ZM211.632 35.3636V79H205.048V35.3636H211.632ZM238.346 79H224.22V35.3636H238.794C243.069 35.3636 246.741 36.2372 249.809 37.9844C252.877 39.7173 255.228 42.2102 256.862 45.4631C258.51 48.7017 259.333 52.5866 259.333 57.1179C259.333 61.6634 258.502 65.5696 256.841 68.8366C255.193 72.1037 252.806 74.6179 249.681 76.3793C246.556 78.1264 242.778 79 238.346 79ZM230.804 73.2472H237.984C241.308 73.2472 244.071 72.6222 246.272 71.3722C248.474 70.108 250.122 68.2827 251.216 65.8963C252.309 63.4957 252.856 60.5696 252.856 57.1179C252.856 53.6946 252.309 50.7898 251.216 48.4034C250.136 46.017 248.524 44.206 246.379 42.9702C244.234 41.7344 241.571 41.1165 238.389 41.1165H230.804V73.2472Z" fill="white"/>
<path d="M28 90.9318H262.721V95.0227H28V90.9318Z" fill="white"/>
<path d="M294.812 79V35.3636H306.659V53.0057H307.256L320.381 35.3636H334.188L319.443 54.7955L334.528 79H320.381L310.58 62.6364L306.659 67.75V79H294.812ZM349.038 79H336.254L350.658 35.3636H366.851L381.254 79H368.47L358.925 47.3807H358.584L349.038 79ZM346.652 61.7841H370.686V70.6477H346.652V61.7841ZM385.457 79V35.3636H397.304V53.0057H397.9L411.025 35.3636H424.832L410.088 54.7955L425.173 79H411.025L401.224 62.6364L397.304 67.75V79H385.457ZM439.683 79H426.899L441.302 35.3636H457.495L471.899 79H459.115L449.569 47.3807H449.228L439.683 79ZM437.297 61.7841H461.331V70.6477H437.297V61.7841ZM476.102 79V35.3636H494.937C498.175 35.3636 501.009 35.9531 503.438 37.1321C505.867 38.3111 507.756 40.0085 509.106 42.2244C510.455 44.4403 511.13 47.0966 511.13 50.1932C511.13 53.3182 510.434 55.9531 509.042 58.098C507.664 60.2429 505.725 61.8622 503.225 62.956C500.739 64.0497 497.835 64.5966 494.511 64.5966H483.261V55.392H492.124C493.516 55.392 494.702 55.2216 495.683 54.8807C496.677 54.5256 497.437 53.9645 497.962 53.1974C498.502 52.4304 498.772 51.429 498.772 50.1932C498.772 48.9432 498.502 47.9276 497.962 47.1463C497.437 46.3509 496.677 45.7685 495.683 45.3991C494.702 45.0156 493.516 44.8239 492.124 44.8239H487.948V79H476.102ZM501.67 58.9716L512.579 79H499.71L489.056 58.9716H501.67Z" fill="black"/>
<path d="M292 90.9318H513.346V95.0227H292V90.9318Z" fill="black"/>
</svg>
